<svg width="79" height="62" viewBox="0 0 79 62" fill="none" xmlns="http://www.w3.org/2000/svg">
    <g clip-path="url(#clip0_7_181)">
        <path fill-rule="evenodd" clip-rule="evenodd"
              d="M56.6673 21.2422C54.1317 25.6891 42.5813 32.381 35.6718 32.4312V32.426C32.5608 32.4488 31.1348 26.849 30.8945 23.7374C30.7729 22.1566 30.7158 20.548 31.0874 18.4663C31.1099 18.3333 31.1555 18.2042 31.219 18.0846C31.2797 17.9697 31.3569 17.864 31.4463 17.772C31.61 17.6067 31.5781 17.6293 31.7811 17.434C32.047 17.1778 32.2429 16.99 32.4429 16.8279C32.7507 16.5777 33.067 16.3883 33.6607 16.101C35.8077 15.0614 38.1233 15.2917 40.4787 15.6324C41.5191 15.7829 43.0109 16.3795 44.5581 16.998C46.5122 17.7794 48.5537 18.5956 49.8818 18.5915C53.5517 18.5814 54.067 13.9214 54.2824 10.6468C54.404 8.78021 54.4237 4.38584 52.6034 3.14076C51.8753 2.64451 49.0842 2.64955 46.9248 3.42122C45.9443 3.77204 43.5594 5.51068 42.6804 6.31501C42.3297 6.63586 41.8697 7.40961 41.3796 8.2347C40.7901 9.22631 40.1563 10.2924 39.6139 10.737C38.1655 11.9245 35.9365 9.82494 35.8575 7.58027C35.8396 7.11162 35.7654 6.65069 36.0529 6.28237C39.6218 1.71761 48.2149 -1.87009 53.8273 1.58969C59.9814 5.38306 60.583 14.3749 56.6673 21.2422ZM38.7796 17.8023C37.4053 17.9575 36.6004 19.5009 36.2416 20.8513C35.8177 22.4347 36.0799 25.1905 37.0978 26.1376C38.686 27.6139 40.8634 27.3123 42.1337 27.1366C42.3036 27.1132 42.4573 27.0918 42.5907 27.0773C43.7402 26.9544 48.3763 25.6016 47.6726 24.0882C47.4055 23.5118 44.161 20.9264 43.6858 20.5833C42.8514 19.979 42.3012 19.543 41.7606 19.1148C41.4829 18.8948 41.2073 18.6767 40.8971 18.4386C40.1837 17.8899 39.6711 17.702 38.7796 17.8023Z"
              fill="#77954F"/>
        <path d="M76.183 37.0763C77.3936 37.7251 78.8131 39.8796 78.8848 40.3057H78.8921C78.9739 40.7917 79.9471 52.4641 60.1451 59.4643C60.1202 59.4744 60.0929 59.4844 60.0686 59.492C58.7386 59.9278 56.3136 59.878 55.1475 58.3797C54.3721 57.3925 54.0229 56.072 54.112 54.456C54.1986 52.9352 54.6498 51.7329 55.4544 50.8834C56.0936 50.2093 56.8809 49.8337 57.567 49.5532C59.3266 48.8332 61.1457 48.4174 62.9059 48.0147L62.9165 48.0123C63.513 47.8767 64.1121 47.7391 64.7068 47.5913C66.6605 47.1026 68.8919 46.4088 70.5886 44.988L71.0982 44.5649C72.2069 43.6553 73.3327 42.3511 74.1825 41.3084C74.6732 40.706 75.0722 40.1906 75.3213 39.8897C76.0861 38.9703 75.0069 38.3813 75.0069 38.3813C70.9821 36.5952 61.1503 35.6633 51.2813 38.7524L51.1328 38.7998L50.9939 38.8451C46.9995 40.1577 44.2607 42.1894 41.9226 44.808C41.8691 44.8682 41.4717 45.4809 41.1462 45.9857L40.7245 46.6443C39.6762 48.5356 38.9114 50.8032 38.9114 52.9705L38.909 53.4139V53.564C38.9048 53.6734 38.8978 53.7676 38.8911 53.85C38.878 54.0169 38.8692 54.1333 38.899 54.2205C40.4544 54.3882 41.9748 54.5563 43.1237 54.6843C43.6636 54.4812 44.1069 54.0503 44.3154 53.4789L47.0937 45.8149C47.3313 45.1585 48.0399 44.808 48.6986 45.0235L50.244 45.5268C50.9222 45.7499 52.4356 46.469 52.1904 47.1452L47.7871 59.2966C47.5468 59.9503 45.7617 60.4038 45.0756 60.3713L31.1597 59.7047C31.1005 59.6999 31.0409 59.6947 30.9841 59.685C30.8577 59.6823 30.7462 59.6823 30.6617 59.6823C29.5675 59.6722 28.1338 59.5096 27.0584 59.3115C22.3138 58.4395 18.0492 59.0735 13.2744 60.098C12.7189 60.2169 11.9854 60.3974 11.2857 60.5989C10.716 60.763 10.1688 60.9408 9.75759 61.1104C8.44012 61.659 7.47932 62.0623 6.42182 61.7921C6.41942 61.7893 6.41705 61.7893 6.41468 61.7893C5.93636 61.7416 5.46871 61.5912 5.05746 61.3383C4.10855 60.7545 3.40055 59.4267 3.14061 58.3544C2.70444 56.5503 3.74238 54.8669 4.24029 54.0576C6.11499 51.0211 8.27929 48.1527 10.3742 45.3767C12.7593 42.2147 15.2286 38.9475 17.2071 35.488C21.4272 28.1145 22.5191 20.6183 20.2064 14.9162C19.9928 14.3926 19.7429 13.8492 19.4824 13.3313C19.1281 12.6279 18.7549 11.9723 18.4279 11.4787C18.1187 11.1504 17.8065 10.8349 17.492 10.5343L16.9419 10.0205L16.6499 9.74506C11.7415 5.42308 6.6473 4.10026 4.70791 3.73462L4.29429 4.67665C3.79461 6.09444 4.23021 7.76811 5.3346 9.92522C6.32507 11.8595 7.61821 13.6058 9.17065 15.1165C9.37301 15.3127 9.58015 15.5044 9.78904 15.6953L10.268 16.1313C11.0679 16.8552 11.8976 17.6019 12.6233 18.4911C13.9978 20.1749 14.666 22.0563 14.5028 23.7925C14.2826 26.1453 12.3705 28.092 10.2383 28.132C8.06863 28.1771 6.60756 26.5234 5.72094 25.1204C5.65448 25.0177 5.60699 24.9251 5.54765 24.8248C5.5156 24.845 4.81474 23.675 4.81474 23.675C-4.50716 8.15394 2.80117 1.48458 3.11807 1.20915C3.39581 0.966072 3.83141 0.760688 4.19578 0.793041C4.58923 0.828359 12.0412 1.60746 19.0397 8.21922C19.4759 8.66146 19.6765 8.86864 19.8361 9.03334C20.0266 9.23012 20.159 9.36665 20.5625 9.77001C21.7441 11.0326 22.7915 12.3507 23.8663 14.0041C23.912 14.0721 23.9547 14.1398 23.998 14.2077L24.0176 14.2371C28.8667 21.9236 26.846 30.234 25.7386 33.4708L25.2555 34.7513C23.7962 38.044 20.2017 43.8853 16.7199 49.5453L16.6897 49.5933C15.9028 50.8722 15.6482 51.2569 15.4749 51.5195C15.2755 51.8207 15.1829 51.9602 14.5129 53.1081C15.6968 53.0337 16.2754 52.9069 16.8143 52.789C17.1276 52.7206 17.4273 52.6553 17.8237 52.6045C18.2309 52.5523 18.5952 52.5018 18.9347 52.455C20.6581 52.2164 21.7233 52.0687 24.3725 52.2319C25.3861 52.2945 26.0733 52.4231 26.8489 52.5684C27.2857 52.6498 27.7504 52.737 28.3177 52.8203C29.1652 52.9449 29.7467 53.223 30.796 53.4315C32.6802 47.629 37.4104 37.8002 48.3966 34.1927L48.619 34.1197L48.7384 34.0823C63.7056 29.3979 74.5724 36.0867 76.0329 36.9857C76.1083 37.0322 76.1587 37.0629 76.183 37.0763Z"
              fill="#77954F"/>
    </g>
    <defs>
        <clipPath id="clip0_7_181">
            <rect width="79" height="62" fill="white"/>
        </clipPath>
    </defs>
</svg>
