<svg width="611" height="149" viewBox="0 0 611 149" fill="none" xmlns="http://www.w3.org/2000/svg">
<path fill-rule="evenodd" clip-rule="evenodd" d="M133.573 50.8041C127.59 61.1742 100.342 76.7791 84.0414 76.896V76.8843C76.7034 76.9369 73.3382 63.8793 72.7715 56.6231C72.4852 52.9365 72.3508 49.1857 73.2272 44.3307C73.3323 43.7231 73.642 43.1506 74.0743 42.7124C74.2205 42.5662 74.3003 42.483 74.3692 42.4112C74.4821 42.2936 74.5656 42.2066 74.863 41.9237C76.458 40.4047 76.9896 39.9198 79.2974 38.8155C84.3627 36.391 89.8253 36.9285 95.3814 37.723C97.8362 38.0741 101.356 39.4653 105.005 40.9074C109.615 42.7294 114.431 44.6326 117.565 44.6228C126.223 44.5995 127.438 33.7327 127.947 26.0968C128.233 21.7442 128.28 11.4967 123.986 8.59308C122.268 7.43629 115.684 7.44797 110.589 9.24742C108.275 10.0653 102.649 14.1199 100.575 15.9953C99.7472 16.7437 98.6623 18.5483 97.5053 20.473C96.1152 22.7852 94.6209 25.2709 93.3424 26.3071C89.9246 29.0764 84.6665 24.1805 84.4795 18.9457C84.4739 18.7943 84.4656 18.6433 84.4574 18.4931C84.4064 17.5594 84.3573 16.6592 84.9411 15.9194C93.3599 5.27461 113.633 -3.09163 126.872 4.97666C141.39 13.822 142.81 34.7902 133.573 50.8041ZM91.3735 42.7825C88.131 43.1448 86.2322 46.7436 85.3851 49.8927H85.3793C84.3861 53.585 85.0053 60.0116 87.4066 62.22C91.1533 65.6626 96.2911 64.9592 99.287 64.549C99.6874 64.4942 100.049 64.4446 100.365 64.4109C103.076 64.1246 114.013 60.9697 112.353 57.441C111.722 56.0972 104.069 50.0679 102.947 49.2675C100.975 47.856 99.676 46.8388 98.3979 45.8378C97.745 45.3266 97.0976 44.8196 96.3687 44.2665C94.6861 42.987 93.4767 42.5488 91.3735 42.7825Z" fill="#006633"/>
<path d="M179.61 87.7272C182.467 89.2404 185.815 94.2648 185.984 95.258H186.002C186.195 96.3915 188.491 123.611 141.775 139.934C141.717 139.958 141.652 139.981 141.594 139.999C138.457 141.015 132.737 140.898 129.985 137.405C128.157 135.103 127.333 132.024 127.543 128.256C127.748 124.709 128.811 121.905 130.71 119.924C132.217 118.353 134.075 117.477 135.693 116.822C139.839 115.145 144.124 114.176 148.271 113.238L148.313 113.229C149.721 112.914 151.135 112.592 152.537 112.248C157.146 111.108 162.41 109.49 166.412 106.177L167.616 105.19C171.015 102.431 174.486 98.1161 176.501 95.6113C176.931 95.077 177.295 94.6251 177.577 94.2882C179.382 92.1441 176.835 90.7711 176.835 90.7711C167.341 86.6055 144.147 84.4321 120.865 91.6357C120.73 91.6775 120.594 91.7214 120.459 91.7649C120.368 91.7943 120.277 91.8236 120.188 91.8519C110.764 94.9133 104.302 99.6515 98.7871 105.757C98.5826 105.985 96.2457 109.595 95.9594 110.039C93.4881 114.45 91.6828 119.737 91.6828 124.791L91.677 125.825V126.176C91.6673 126.43 91.6501 126.65 91.635 126.842C91.6045 127.231 91.5832 127.503 91.6536 127.706C95.3226 128.098 98.9098 128.489 101.621 128.787C102.894 128.314 103.94 127.309 104.431 125.977L110.986 108.105C111.547 106.575 113.218 105.757 114.772 106.259L118.417 107.433C120.018 107.953 123.588 109.63 123.01 111.208L112.622 139.543C112.055 141.068 107.843 142.125 106.224 142.049L73.3963 140.495C73.2562 140.484 73.1157 140.472 72.9815 140.449C72.6835 140.443 72.4206 140.443 72.222 140.443C69.6396 140.419 66.2569 140.04 63.7213 139.578C52.5274 137.545 42.4669 139.023 31.2028 141.413C28.825 141.915 25.0683 142.891 22.9067 143.773L22.8647 143.79C19.7781 145.061 17.5205 145.99 15.037 145.362C15.0312 145.356 15.0253 145.356 15.0195 145.356C13.8919 145.245 12.7877 144.895 11.8179 144.305C9.58028 142.943 7.90937 139.847 7.29592 137.346C6.26902 133.145 8.70917 129.224 9.88527 127.334L9.88991 127.327C14.3126 120.246 19.4188 113.556 24.3614 107.083L24.4888 106.916C30.0754 99.5949 35.8476 92.0306 40.4805 84.0232C50.4358 66.8292 53.0123 49.3488 47.5555 36.0516C46.3696 33.1714 44.6986 30.034 43.3607 28.0359C42.6305 27.2706 41.8943 26.5345 41.1523 25.8334L39.8553 24.6357L39.1659 23.993C27.5864 13.915 15.5687 10.8302 10.9941 9.97722L10.0184 12.1739C8.83829 15.4807 9.86655 19.3834 12.4722 24.4137C14.8092 28.924 17.8589 32.9961 21.522 36.519C22.2332 37.2006 22.9695 37.8613 23.7061 38.5222C23.8408 38.6432 23.9756 38.7641 24.1102 38.8852L24.212 38.9762C26.0675 40.6363 27.9852 42.3519 29.6663 44.3887C32.9088 48.3147 34.4862 52.7023 34.1006 56.7511C33.5806 62.2371 29.0703 66.7766 24.0401 66.87C18.9222 66.9752 15.4752 63.1192 13.3836 59.8475C13.2835 59.6954 13.2022 59.5528 13.1203 59.4091C13.0732 59.3264 13.0259 59.2435 12.9747 59.1581C12.8987 59.2049 11.2453 56.4765 11.2453 56.4765C-10.7453 20.2831 6.49551 4.73078 7.24333 4.08812C7.89767 3.52141 8.92593 3.04235 9.78475 3.1183C10.7137 3.2001 28.2933 5.01708 44.8038 20.435C45.8255 21.4594 46.2992 21.9429 46.6747 22.3262C47.128 22.7889 47.4382 23.1056 48.3968 24.0515C51.1836 26.996 53.655 30.0691 56.1905 33.925C56.3132 34.1061 56.4301 34.2872 56.5469 34.4683C67.9863 52.3927 63.2189 71.7718 60.6074 79.3201L59.4681 82.3055C56.0256 89.9828 47.5479 103.601 39.3331 116.797L39.2594 116.916C37.4029 119.897 36.8022 120.795 36.3929 121.407C35.9224 122.11 35.7048 122.435 34.124 125.112C36.9181 124.939 38.2837 124.643 39.5548 124.369C40.293 124.209 40.9994 124.056 41.9352 123.938C42.8966 123.816 43.7575 123.698 44.5581 123.589C48.6229 123.033 51.1365 122.689 57.384 123.069C59.7755 123.215 61.397 123.515 63.2263 123.853C64.2571 124.044 65.354 124.247 66.6918 124.441C67.7485 124.595 68.6303 124.849 69.5926 125.125C70.4501 125.372 71.3714 125.637 72.5374 125.866C76.9835 112.335 88.1424 89.4157 114.059 81.0027C114.328 80.9151 114.597 80.8274 114.865 80.7456C150.173 69.8227 175.807 85.4178 179.255 87.5158C179.433 87.624 179.552 87.6963 179.61 87.7272Z" fill="#006633"/>
<path d="M416.655 32.182C417.52 34.9864 417.946 38.3632 417.946 42.3127V69.4095C417.946 70.6305 416.959 71.6179 415.738 71.6179H407.979C406.758 71.6179 405.771 70.6305 405.771 69.4095V39.187C405.771 33.2921 404.941 30.1839 402.891 27.4965C400.846 24.8031 398.567 23.4536 396.049 23.4536C393.753 23.4536 391.013 24.4818 388.571 26.4565C386.129 28.4313 384.692 29.6932 383.909 32.7195C383.547 34.297 383.319 35.8978 383.208 37.5161C383.097 39.1344 383.044 41.1617 383.044 43.598V69.4036C383.044 70.6247 382.057 71.6121 380.836 71.6121H375.56C374.339 71.6121 373.381 70.3034 373.381 69.0823V21.7768C373.381 20.5558 374.368 19.5684 375.589 19.5684L383.05 19.8897V28.0807C384.417 25.6444 386.532 23.5587 389.406 21.8352C392.281 20.1117 395.301 19.2471 398.456 19.2471C401.331 19.2471 403.954 19.6619 406.326 20.4915C408.698 21.3153 410.813 22.8051 412.682 24.9609C414.476 26.9707 415.808 29.3836 416.667 32.1762L416.655 32.182Z" fill="#006633"/>
<path d="M364.091 32.4867C364.955 35.291 365.382 38.6679 365.382 42.6173V69.7142C365.382 70.9352 364.395 71.9226 363.173 71.9226H355.415C354.194 71.9226 353.206 70.9352 353.206 69.7142V39.4917C353.206 33.5968 352.377 30.4886 350.326 27.8012C348.281 25.1078 346.003 23.7582 343.485 23.7582C341.189 23.7582 338.449 24.7865 336.007 26.7612C333.564 28.7359 332.127 29.9979 331.344 33.0242C330.982 34.6017 330.754 36.2024 330.643 37.8208C330.532 39.4391 330.48 41.4664 330.48 43.9027V69.7083C330.48 70.9294 329.492 71.9168 328.271 71.9168H322.996C321.775 71.9168 320.816 70.6081 320.816 69.387V22.0815C320.816 20.8604 321.804 19.8731 323.025 19.8731L330.486 20.1944V28.3854C331.853 25.9491 333.968 23.8634 336.842 22.1399C339.716 20.4164 342.737 19.5518 345.892 19.5518C348.766 19.5518 351.389 19.9666 353.761 20.7962C356.133 21.62 358.248 23.1097 360.118 25.2656C361.912 27.2753 363.244 29.6882 364.102 32.4809L364.091 32.4867Z" fill="#006633"/>
<path d="M524.289 35.3081C525.621 38.5389 526.287 41.9158 526.287 45.4388C526.287 48.9617 525.621 52.3152 524.289 55.511C522.963 58.7067 521.041 61.5987 518.529 64.1868C516.011 66.6991 513.136 68.6212 509.906 69.9474C506.675 71.2795 503.298 71.9455 499.781 71.9455C494.604 71.9455 489.825 70.5492 485.449 67.7448V71.3028L476.955 71.1743C475.769 71.1743 474.811 70.2162 474.811 69.0302V2.42737C474.811 1.24137 475.769 0.283203 476.955 0.283203L483.305 0.411753C484.491 0.411753 485.449 1.36989 485.449 2.55589V19.4753C485.449 21.0177 487.05 22.0927 488.435 21.4208C491.853 19.7616 495.633 18.9378 499.781 18.9378C503.368 18.9378 506.762 19.6039 509.958 20.9359C513.154 22.268 516.011 24.1901 518.529 26.7023C521.041 29.2145 522.963 32.089 524.289 35.3198V35.3081ZM509.467 64.5023C511.477 61.809 512.5 59.9804 512.926 56.7495C513.358 53.5187 513.58 49.7446 513.58 45.4388C513.58 41.1329 513.364 37.3588 512.926 34.1279C512.5 30.8913 511.617 29.2496 509.608 26.5504C507.598 23.8629 504.092 22.5426 499.787 22.5426C494.803 22.5426 490.351 23.8629 486.413 26.5037C485.812 26.9068 485.449 27.6196 485.449 28.3499V62.5627C485.449 63.2813 485.8 63.9882 486.396 64.3972C490.339 67.1022 494.797 68.4576 499.787 68.4576C504.092 68.4576 507.458 67.2015 509.467 64.514V64.5023Z" fill="#006633"/>
<path d="M259.588 64.9635C256.696 64.3033 253.816 61.8027 250.714 68.0132C249.423 70.5955 249.119 73.4407 247.185 75.5907C240.361 83.1858 228.016 82.806 219.925 76.9403C215.794 73.949 212.534 71.4076 210.349 66.6402C208.152 61.8729 207.06 54.7978 207.06 45.4208C207.06 36.0438 208.152 28.9804 210.349 24.2131C212.534 19.4457 214.03 18.4116 218.16 15.4203C222.291 12.5109 226.912 11.0502 232.036 11.0502C234.034 11.0502 235.898 11.2138 237.639 11.5293C242.745 12.4583 246.25 12.6686 249.358 16.6589C263.374 34.6651 239.721 35.5775 226.617 32.6505C218.175 30.7634 210.299 26.6854 201.775 25.2424C191.06 23.4254 179.662 22.3679 170.817 28.6835C169.181 29.852 167.463 31.558 167.837 33.5327C168.024 34.5259 168.713 35.3321 169.379 36.0858C172.008 39.0771 175.467 42.3605 179.352 41.5075C181.076 41.1277 182.507 39.9768 183.927 38.931C189.413 34.8823 194.986 33.59 201.763 34.3028C207.313 34.887 204.001 33.4509 217.935 39.9476C230.742 45.9126 250.646 43.7667 257.298 37.779C262.743 32.0593 261.832 25.5744 260.582 22.2501C258.63 17.0854 255.101 13.5741 255.101 13.5741C253.033 11.7455 251.251 10.4193 250.48 9.91686C245.836 6.86131 239.473 5.84473 233.695 5.84473C226.264 5.84473 219.387 7.61494 213.072 11.1613C206.756 14.7076 201.737 19.51 198.022 25.5802C194.306 31.6446 192.448 38.2639 192.448 45.4267C192.448 52.5894 194.306 59.2204 198.022 65.279C201.737 71.3492 206.756 76.1516 213.072 79.6979C219.387 83.2442 226.264 85.0144 233.695 85.0144C239.806 85.0144 245.584 83.7934 251.035 81.3513C254.476 79.8089 271.945 67.7736 259.588 64.9635Z" fill="#006633"/>
<path d="M566.67 23.5012C569.188 22.6482 572.033 22.1048 575.369 22.4788C578.15 22.9052 580.832 23.2324 583.665 26.843C585.734 29.4779 586.516 32.9541 589.169 35.2267C590.682 36.5237 592.739 36.8801 594.643 36.29C602.898 33.7253 589.782 23.3843 587.083 21.9704C583.215 19.9431 579.985 18.8565 574.715 18.9324C574.697 18.9324 574.68 18.9324 574.662 18.9324C574.616 18.9324 574.563 18.9441 574.516 18.9441C573.803 18.9558 572.314 19.1136 572.314 19.1136C570.281 19.2888 568.23 19.6043 566.156 20.2294C562.709 21.3044 559.922 22.9578 557.801 25.1837C555.68 27.4097 554.623 30.0972 554.623 33.2637C554.623 36.4303 555.342 39.0243 556.773 41.0749C558.21 43.1198 559.969 44.7556 562.055 45.9767C564.134 47.1977 566.863 48.4889 570.245 49.856L572.933 51.042C577.104 52.8356 580.084 54.1852 581.878 55.0791C583.677 55.9729 585.073 56.9603 586.078 58.0411C587.083 59.122 587.586 60.4131 587.586 61.9204C587.586 63.0772 587.305 63.3284 586.3 64.5144C585.295 65.7004 581.439 67.2136 579.126 67.9381C578.822 68.0316 577.957 68.201 577.63 68.2244C574.732 68.4113 572.559 68.2243 569.135 64.9176C567.359 63.1999 566.197 60.9506 564.532 59.122C562.867 57.2991 560.319 55.8736 558.012 56.6331C553.338 58.1638 554.343 61.0207 556.989 63.7199C557.795 64.9059 560.681 67.1143 561.949 68.0549C562.276 68.3003 562.621 68.5165 562.989 68.6917C563.462 68.9196 563.62 69.0657 564.485 69.3987C564.859 69.5798 566.203 70.1231 566.442 70.2107C567.961 70.7716 569.428 71.1105 570.871 71.4143C572.138 71.7239 575.469 71.9634 576.538 71.9693C578.81 71.9868 582.865 71.1806 585.704 69.6382C588.538 68.09 590.606 66.6703 591.897 65.3791C594.772 62.3645 596.209 59.0577 596.209 55.4646C596.209 53.0284 595.455 50.9193 593.942 49.1608C592.435 47.4022 590.589 45.9299 588.398 44.7381C586.213 43.5579 583.099 42.1032 579.085 40.3797L577.034 39.515C575.743 38.9366 574.773 38.5452 574.131 38.329C569.895 36.5354 566.728 34.9872 564.654 33.696C562.569 32.4049 561.523 30.8567 561.523 29.0631C561.523 28.7768 561.511 28.3153 561.739 27.7661C563.018 24.6638 564.035 24.4009 566.676 23.507L566.67 23.5012Z" fill="#006633"/>
<path d="M466.799 42.1962C466.799 38.2467 466.373 34.8698 465.508 32.0655C464.644 29.267 463.481 26.8424 462.149 24.4997C460.63 21.8297 457.715 19.7498 455.348 18.9261C452.976 18.0964 450.353 17.6816 447.479 17.6816C440.754 17.6816 432.189 22.4782 427.06 26.7081C426.645 27.0469 426.23 27.415 426.014 27.9058C425.798 28.3965 426.125 29.4949 426.534 29.8396C426.768 30.0382 427.089 30.1142 427.399 30.155C429.373 30.418 431.056 29.156 432.715 28.0577C434.374 26.9593 435.823 25.563 437.459 24.4296C442.262 21.0994 447.859 21.3156 451.563 26.1998C455.407 31.2651 456.201 40.1922 450.137 43.7152C446.205 45.9995 441.631 46.8817 437.407 48.5701C433.183 50.2586 428.999 53.1681 427.79 57.5498C426.733 61.3883 427.241 64.4146 430.022 67.2657C432.803 70.1109 436.998 71.0924 440.976 71.1041C448.443 71.1275 451.966 70.4089 454.677 67.5227C454.677 68.1245 454.636 68.7321 454.636 69.293C454.636 70.514 455.623 71.5014 456.844 71.5014H464.603C465.824 71.5014 466.811 70.514 466.811 69.293V69.1644L466.782 68.7204L466.811 67.9259V42.1962H466.799ZM455.921 60.8215C455.121 62.9832 450.663 65.0397 448.606 66.0855C446.112 67.3533 441.718 67.6104 439.042 66.7924C436.367 65.9687 434.906 62.1069 435.864 59.4778C436.489 57.7718 437.284 57.0124 438.914 56.2061C440.994 55.1779 442.489 54.5352 445.265 53.0629C446.31 52.5079 453.864 48.9265 455.138 48.9557C458.486 49.0258 456.727 58.6365 455.921 60.8274V60.8215Z" fill="#006633"/>
<path d="M312.803 42.1962C312.803 38.2467 312.377 34.8698 311.512 32.0655C310.648 29.267 309.485 26.8424 308.153 24.4997C306.634 21.8297 303.718 19.7498 301.352 18.9261C298.98 18.0964 296.357 17.6816 293.483 17.6816C286.758 17.6816 278.193 22.4782 273.064 26.7081C272.649 27.0469 272.234 27.415 272.018 27.9058C271.802 28.3965 272.129 29.4949 272.538 29.8396C272.772 30.0382 273.093 30.1142 273.403 30.155C275.377 30.418 277.06 29.156 278.719 28.0577C280.378 26.9593 281.827 25.563 283.463 24.4296C288.265 21.0994 293.862 21.3156 297.566 26.1998C301.411 31.2651 302.205 40.1922 296.141 43.7152C292.209 45.9995 287.635 46.8817 283.41 48.5701C279.186 50.2586 275.003 53.1681 273.794 57.5498C272.737 61.3883 273.245 64.4146 276.026 67.2657C278.807 70.1109 283.002 71.0924 286.98 71.1041C294.447 71.1275 297.97 70.4089 300.68 67.5227C300.68 68.1245 300.64 68.7321 300.64 69.293C300.64 70.514 301.627 71.5014 302.848 71.5014H310.607C311.828 71.5014 312.815 70.514 312.815 69.293V69.1644L312.786 68.7204L312.815 67.9259V42.1962H312.803ZM301.925 60.8215C301.125 62.9832 296.667 65.0397 294.61 66.0855C292.116 67.3533 287.722 67.6104 285.046 66.7924C282.371 65.9687 280.91 62.1069 281.868 59.4778C282.493 57.7718 283.288 57.0124 284.918 56.2061C286.998 55.1779 288.493 54.5352 291.268 53.0629C292.314 52.5079 299.868 48.9265 301.142 48.9557C304.49 49.0258 302.731 58.6365 301.925 60.8274V60.8215Z" fill="#006633"/>
<path d="M274.07 109.944C273.293 107.42 272.089 105.246 270.477 103.435C268.794 101.495 266.884 100.146 264.745 99.4098C262.607 98.662 260.241 98.2881 257.653 98.2881C254.807 98.2881 252.085 99.0651 249.491 100.619C247.692 101.7 246.342 102.991 245.203 104.382C244.969 104.078 244.788 103.721 244.531 103.435C242.848 101.495 240.938 100.146 238.799 99.4098C236.661 98.662 234.295 98.2881 231.707 98.2881C228.862 98.2881 226.139 99.0651 223.545 100.619C220.957 102.173 219.046 104.054 217.814 106.251V98.8665H208.828C207.73 98.8665 206.836 99.7545 206.836 100.859V146.388C206.836 147.486 207.73 148.38 208.828 148.38H215.821C216.92 148.38 217.814 147.486 217.814 146.388V120.244C217.814 118.047 217.86 116.218 217.96 114.758C218.059 113.303 218.41 113.326 218.731 111.907C219.444 109.184 220.898 106.935 223.101 105.153C225.304 103.371 227.442 102.483 229.51 102.483C231.783 102.483 233.839 103.698 235.68 106.123C237.526 108.547 238.303 110.943 238.303 116.259V146.388C238.303 147.486 239.191 148.38 240.289 148.38H247.283C248.381 148.38 249.275 147.486 249.275 146.388V119.075C249.275 115.511 248.971 112.543 248.369 109.967C248.054 108.612 248.433 108.88 247.662 107.022C248.334 106.082 249.345 104.761 250.361 104.09C253.183 102.22 254.077 101.957 256.145 101.957C258.418 101.957 260.229 103.108 262.07 105.538C263.916 107.963 264.249 110.954 264.249 116.271V146.4C264.249 147.498 265.137 148.392 266.235 148.392H273.228C274.327 148.392 275.221 147.498 275.221 146.4V119.087C275.221 115.523 274.835 112.479 274.058 109.955L274.07 109.944Z" fill="#006633"/>
<path d="M339.298 116.738C340.449 113.946 342.102 111.469 344.275 109.295C346.443 107.128 348.908 105.463 351.672 104.317C354.435 103.167 357.368 102.594 360.47 102.594C364.046 102.594 367.306 103.307 370.262 104.738C371.466 105.322 372.844 104.388 372.844 103.056V88.4438C372.844 87.4214 373.674 86.5918 374.697 86.5918H381.503C382.525 86.5918 383.355 87.4214 383.355 88.4438V145.973C383.355 146.996 382.525 147.825 381.503 147.825H372.844V144.752C369.064 147.177 364.934 148.381 360.47 148.381C357.427 148.381 354.529 147.808 351.765 146.657C349.002 145.512 346.513 143.853 344.275 141.685C342.102 139.453 340.443 136.953 339.298 134.189C338.147 131.432 337.574 128.528 337.574 125.49C337.574 122.452 338.147 119.531 339.298 116.738ZM349.113 135.259C349.481 138.051 350.358 139.021 352.093 141.352C353.828 143.677 357.141 144.752 360.868 144.752C365.174 144.752 368.626 144.116 372.032 141.779C372.547 141.428 372.85 140.815 372.85 140.195V111.112C372.85 110.481 372.541 109.868 372.021 109.517C368.62 107.239 365.421 107.079 361.121 107.079C357.399 107.079 353.407 107.746 351.672 110.071C349.937 112.402 349.493 112.923 349.119 115.716C348.745 118.509 348.564 121.763 348.564 125.484C348.564 129.206 348.745 132.466 349.119 135.253L349.113 135.259Z" fill="#006633"/>
<path d="M453.148 135.183C451.512 134.412 450.77 136.474 449.677 137.859C448.591 139.243 446.426 140.984 443.405 141.821C441.385 142.274 437.164 142.275 433.857 140.599C428.342 137.8 424.341 133.139 424.528 122.593C424.727 111.732 428.036 107.887 430.975 105.223C433.259 103.155 434.886 102.914 438.011 102.896C441.528 102.873 444.571 103.213 446.908 105.223C448.456 106.555 449.817 108.884 450.524 112.089C450.875 113.679 450.589 115.22 450.343 116.856C450.098 118.491 449.531 120.454 452.096 121.541C458.826 124.398 456.384 113.093 455.508 111.153C453.983 107.782 451.962 105.849 450.524 104.365C449.356 103.155 447.708 102.209 446.908 101.765C443.934 100.141 439.961 99.4629 436.444 99.4629C431.911 99.4629 427.722 100.544 423.866 102.705C420.016 104.867 416.954 107.794 414.687 111.498C412.421 115.196 411.287 119.233 411.287 123.598C411.287 127.962 412.421 132.005 414.687 135.703C416.954 139.401 420.016 142.334 423.866 144.496C427.716 146.657 431.911 147.738 436.444 147.738C440.172 147.738 443.794 147.195 447.019 145.506C449.046 144.443 456.676 136.86 453.148 135.195V135.183Z" fill="#006633"/>
<path d="M573.469 120.229C573.469 116.468 573.06 113.258 572.242 110.588C571.423 107.923 570.157 105.634 568.446 103.719C566.668 101.668 564.651 100.248 562.396 99.4697C560.141 98.6801 557.641 98.2881 554.908 98.2881C548.511 98.2881 540.535 101.47 535.649 105.498C535.257 105.821 534.859 106.168 534.655 106.634C534.445 107.1 534.763 108.145 535.149 108.474C535.376 108.668 535.677 108.736 535.967 108.776C537.848 109.026 539.444 107.827 541.023 106.782C542.603 105.736 543.978 104.407 545.54 103.327C550.108 100.163 555.437 100.362 558.959 105.009C562.618 109.832 563.373 118.326 557.601 121.678C553.857 123.848 549.505 124.689 545.489 126.296C541.472 127.904 537.484 130.671 536.336 134.841C535.331 138.494 536.808 142.527 539.455 145.237C542.103 147.947 547.216 148.493 551 148.305C557.698 147.976 557.976 148.419 561.919 144.334C561.919 144.908 561.879 145.487 561.879 146.016C561.879 147.175 562.822 148.118 563.981 148.118H571.367C572.526 148.118 573.469 147.175 573.469 146.016V145.891L573.44 145.47L573.469 144.715V120.229ZM563.118 137.948C562.356 140.005 558.112 141.959 556.158 142.954C553.783 144.158 549.602 144.408 547.057 143.624C544.512 142.84 543.12 139.164 544.034 136.665C544.625 135.04 545.387 134.318 546.938 133.551C548.915 132.568 550.341 131.966 552.982 130.557C553.977 130.029 561.163 126.626 562.379 126.649C565.566 126.717 563.89 135.863 563.123 137.943L563.118 137.948Z" fill="#006633"/>
<path d="M525.372 110.464C526.184 113.104 526.587 116.285 526.587 120.01V145.542C526.587 146.689 525.656 147.621 524.509 147.621H517.2C516.053 147.621 515.122 146.689 515.122 145.542V117.068C515.122 111.514 514.338 108.59 512.407 106.051C510.482 103.513 508.33 102.246 505.956 102.246C503.792 102.246 501.208 103.217 498.908 105.08C496.603 106.943 495.257 108.13 494.513 110.98C494.172 112.463 493.956 113.973 493.854 115.495C493.752 117.017 493.701 118.931 493.701 121.225V145.542C493.701 146.689 492.77 147.621 491.622 147.621H486.653C485.506 147.621 484.598 146.383 484.598 145.236V100.662C484.598 99.5148 485.529 98.5834 486.676 98.5834L493.707 98.8901V106.608C494.99 104.313 496.989 102.349 499.698 100.724C502.407 99.1002 505.252 98.2881 508.228 98.2881C510.936 98.2881 513.412 98.68 515.644 99.458C517.876 100.23 519.875 101.639 521.635 103.666C523.322 105.557 524.577 107.829 525.389 110.469L525.372 110.464Z" fill="#006633"/>
<path d="M397.472 100.04C397.262 100.087 396.085 99.3741 395.576 99.0294L395.583 99.0236C394.092 98.0187 393.51 97.3788 392.528 96.0935C391.269 94.4401 391.266 93.7094 391.431 91.9917C391.678 89.4211 394.032 86.8154 397.404 86.8154C399.188 86.8213 400.455 87.3412 401.609 88.4221C402.928 89.6548 403.288 90.9518 403.288 91.7406C403.255 95.2597 401.194 96.972 398.835 98.9311C398.76 98.9929 398.686 99.0548 398.611 99.1171C398.598 99.1283 398.566 99.1558 398.522 99.1945C398.266 99.4177 397.58 100.015 397.472 100.04Z" fill="#006633"/>
<path d="M392 102.414H402.645V147.628H392V102.414Z" fill="#006633"/>
<path d="M540.808 14.7717C540.598 14.8184 539.421 14.1056 538.911 13.7609L538.919 13.7551C537.428 12.7502 536.846 12.1102 535.864 10.8249C534.605 9.17154 534.602 8.44084 534.767 6.72319C535.014 4.15255 537.368 1.54688 540.74 1.54688C542.524 1.55272 543.79 2.07269 544.945 3.15352C546.264 4.38626 546.623 5.68329 546.623 6.47201C546.591 9.99117 544.529 11.7035 542.171 13.6626C542.096 13.7243 542.022 13.7863 541.947 13.8485C541.933 13.8598 541.902 13.8872 541.858 13.926C541.602 14.1491 540.916 14.7468 540.808 14.7717Z" fill="#006633"/>
<path d="M544.342 17.6816H536.408C535.239 17.6816 534.287 18.6339 534.287 19.8024V67.2774C534.287 68.4458 535.239 69.3981 536.408 69.3981H544.342C545.51 69.3981 546.463 68.4458 546.463 67.2774V19.8024C546.463 18.6339 545.51 17.6816 544.342 17.6816Z" fill="#006633"/>
<path d="M470.782 100.04C470.572 100.087 469.396 99.3741 468.886 99.0294L468.894 99.0236C467.402 98.0187 466.82 97.3788 465.838 96.0935C464.579 94.4401 464.577 93.7094 464.742 91.9917C464.989 89.4211 467.342 86.8154 470.715 86.8154C472.499 86.8213 473.765 87.3412 474.919 88.4221C476.238 89.6548 476.598 90.9518 476.598 91.7406C476.566 95.2597 474.504 96.972 472.145 98.9311C472.071 98.9928 471.996 99.0548 471.921 99.1171C471.908 99.1283 471.877 99.1558 471.832 99.1945C471.576 99.4177 470.891 100.015 470.782 100.04Z" fill="#006633"/>
<path d="M467.163 102.414H474.103C475.126 102.414 475.955 103.243 475.955 104.266V145.776C475.955 146.799 475.126 147.628 474.103 147.628H467.163C466.14 147.628 465.311 146.799 465.311 145.776V104.266C465.311 103.243 466.14 102.414 467.163 102.414Z" fill="#006633"/>
<path d="M609.731 126.595C609.597 126.198 609.439 125.462 606.81 125.661C604.76 125.818 605.356 131.836 605.145 134.354C604.73 139.449 601.827 143.474 594.062 143.702C591.474 143.778 592.134 139.84 592.134 137.234C592.134 137.164 592.117 137.106 592.093 137.047C592.117 136.925 592.134 136.796 592.134 136.668V95.1635C592.134 94.1411 591.305 93.3115 590.282 93.3115H583.347C582.325 93.3115 581.495 94.1411 581.495 95.1635V136.668C581.495 142.23 581.431 135.99 581.495 142.527C581.548 148.054 590.907 147.505 596.539 147.33C601.424 147.178 606.997 143.673 608.867 139.676C610.818 135.505 611.204 130.96 609.731 126.595Z" fill="#006633"/>
<path fill-rule="evenodd" clip-rule="evenodd" d="M325.079 135.183C323.443 134.412 322.231 135.837 321.138 137.221C321.071 137.307 321.002 137.396 320.931 137.488C319.838 138.893 318.172 141.036 315.336 141.821C313.316 142.274 308.085 142.433 304.778 140.757L304.648 140.691C299.194 137.924 294.856 135.723 295.041 125.26C297.395 124.912 298.578 124.806 301.507 124.546C302.012 124.501 302.569 124.451 303.193 124.395L322.784 123.002L324.948 122.86C332.762 122.86 328.545 113.585 327.514 111.317C327.487 111.258 327.462 111.203 327.44 111.153C326.023 108.022 324.178 106.131 322.771 104.688C322.663 104.578 322.558 104.47 322.456 104.365C321.287 103.155 319.64 102.209 318.84 101.765C315.866 100.141 311.893 99.4629 308.376 99.4629C303.842 99.4629 299.653 100.544 295.797 102.705C291.947 104.867 288.886 107.794 286.619 111.498C284.352 115.196 283.219 119.233 283.219 123.598C283.219 127.962 284.352 132.005 286.619 135.703C288.886 139.401 291.947 142.334 295.797 144.496C299.647 146.657 303.842 147.738 308.376 147.738C312.103 147.738 315.726 147.195 318.951 145.506C321.941 143.941 328.608 136.86 325.079 135.195V135.183ZM306.6 105.747C304.227 106.281 303.243 106.523 300.873 108.179L299.169 109.816C297.507 111.454 293.276 118.503 296.77 119.387C298.006 119.701 307.099 119.323 308.277 119.263C312.041 119.08 315.714 118.844 318.326 118.571C318.352 118.568 318.38 118.565 318.407 118.563C320.681 118.326 324.573 117.92 322.263 113.074C320.468 109.82 318.257 107.814 315.79 106.489C313.324 105.164 309.335 105.135 306.6 105.747Z" fill="#006633"/>
</svg>
