<svg width="260" height="204" viewBox="0 0 260 204" fill="none" xmlns="http://www.w3.org/2000/svg">
<path fill-rule="evenodd" clip-rule="evenodd" d="M186.5 69.8936C178.155 84.5255 140.141 106.544 117.401 106.709V106.692C107.162 106.767 102.469 88.3419 101.678 78.1036C101.278 72.9024 101.09 67.6095 102.313 60.7599C102.387 60.3224 102.537 59.8976 102.746 59.504C102.946 59.1261 103.2 58.7784 103.494 58.4757C104.033 57.9317 103.928 58.006 104.596 57.3634C105.471 56.5206 106.116 55.9024 106.774 55.3692C107.787 54.546 108.828 53.9229 110.782 52.9776C117.848 49.5567 125.469 50.3145 133.221 51.4356C136.645 51.9308 141.555 53.8937 146.647 55.9288C153.078 58.5001 159.797 61.1856 164.168 61.172C176.246 61.1388 177.942 45.8058 178.651 35.0313C179.051 28.8897 179.116 14.4308 173.125 10.3341C170.729 8.70127 161.543 8.71787 154.436 11.2569C151.209 12.4112 143.36 18.1319 140.467 20.7784C139.313 21.8341 137.799 24.38 136.186 27.0948C134.246 30.3575 132.16 33.8653 130.375 35.3282C125.608 39.2354 118.272 32.3272 118.012 24.9415C117.953 23.3995 117.709 21.8829 118.655 20.671C130.401 5.65146 158.682 -6.15323 177.153 5.23056C197.407 17.712 199.387 47.2979 186.5 69.8936ZM127.629 58.5753C123.106 59.086 120.457 64.1642 119.276 68.6075C117.881 73.8175 118.744 82.8849 122.094 86.0011C127.321 90.8585 134.487 89.8663 138.668 89.2882C139.227 89.211 139.733 89.1407 140.172 89.0929C143.955 88.6886 159.213 84.2374 156.897 79.2579C156.018 77.3614 145.34 68.8546 143.776 67.7257C141.03 65.7374 139.219 64.3028 137.44 62.8937C136.526 62.17 135.619 61.4522 134.598 60.669C132.25 58.8634 130.563 58.2452 127.629 58.5753Z" fill="#006633"/>
<path d="M250.729 121.993C254.713 124.128 259.385 131.217 259.621 132.619H259.645C259.914 134.218 263.117 172.624 197.946 195.657C197.864 195.69 197.774 195.723 197.694 195.748C193.317 197.182 185.336 197.018 181.498 192.088C178.946 188.84 177.797 184.495 178.09 179.178C178.375 174.174 179.86 170.218 182.508 167.423C184.612 165.205 187.203 163.969 189.461 163.046C195.252 160.677 201.239 159.309 207.032 157.984L207.067 157.976C209.03 157.53 211.002 157.077 212.959 156.591C219.389 154.983 226.733 152.7 232.317 148.025L233.994 146.633C237.643 143.64 241.348 139.349 244.145 135.918C245.76 133.936 247.073 132.24 247.893 131.25C250.41 128.225 246.858 126.287 246.858 126.287C233.612 120.41 201.254 117.344 168.774 127.508L168.285 127.664L167.828 127.813C154.682 132.132 145.668 138.817 137.973 147.433C137.797 147.631 136.489 149.647 135.418 151.308L134.03 153.475C130.58 159.698 128.063 167.159 128.063 174.29L128.055 175.749V176.243C128.041 176.603 128.018 176.913 127.996 177.184C127.953 177.733 127.924 178.116 128.022 178.403C133.141 178.955 138.145 179.508 141.926 179.929C143.703 179.261 145.162 177.843 145.848 175.963L154.992 150.746C155.774 148.586 158.106 147.433 160.274 148.142L165.36 149.798C167.592 150.532 172.573 152.898 171.766 155.123L157.274 195.105C156.483 197.256 150.608 198.748 148.35 198.641L102.551 196.448C102.356 196.432 102.16 196.415 101.973 196.383C101.557 196.374 101.19 196.374 100.912 196.374C97.3108 196.341 92.5921 195.806 89.053 195.154C73.4378 192.285 59.4026 194.371 43.6878 197.742C41.8597 198.133 39.4456 198.727 37.1429 199.39C35.2679 199.93 33.4671 200.515 32.1136 201.073C27.7776 202.878 24.6155 204.205 21.1351 203.316C21.1272 203.307 21.1194 203.307 21.1116 203.307C19.5374 203.15 17.9983 202.655 16.6448 201.823C13.5218 199.902 11.1917 195.533 10.3362 192.005C8.90068 186.069 12.3167 180.53 13.9554 177.867C20.1253 167.876 27.2483 158.438 34.1429 149.304C41.9925 138.9 50.1194 128.15 56.6311 116.767C70.5198 92.506 74.1136 67.8409 66.5022 49.0792C65.7991 47.3565 64.9768 45.5685 64.1194 43.8644C62.9534 41.5499 61.7249 39.3927 60.6487 37.7687C59.6311 36.6886 58.6038 35.6505 57.5686 34.6612L55.7581 32.9708L54.7972 32.0645C38.6429 17.8438 21.8772 13.4913 15.4944 12.2882L14.1331 15.3878C12.4886 20.0528 13.9222 25.5597 17.5569 32.6573C20.8167 39.0216 25.0726 44.7677 30.1819 49.7384C30.8479 50.3839 31.5296 51.0147 32.2171 51.6427L33.7933 53.0772C36.4261 55.4591 39.1565 57.9161 41.5452 60.8419C46.0686 66.3819 48.2679 72.5724 47.7308 78.2852C47.0061 86.0265 40.7132 92.4317 33.6956 92.5636C26.555 92.712 21.7464 87.2706 18.8284 82.6544C18.6097 82.3165 18.4534 82.0118 18.2581 81.6817C18.1526 81.7481 15.846 77.8985 15.846 77.8985C-14.8337 26.8292 9.21904 4.88486 10.262 3.97861C11.1761 3.1788 12.6097 2.50302 13.8089 2.60947C15.1038 2.72568 39.6292 5.28916 62.6624 27.044C64.0979 28.4991 64.7581 29.1808 65.2835 29.7227C65.9104 30.3702 66.346 30.8194 67.6741 32.1466C71.5628 36.3009 75.0101 40.6378 78.5472 46.0782C78.6976 46.3019 78.8382 46.5245 78.9808 46.7481L79.0452 46.8448C95.0042 72.1358 88.3538 99.4796 84.7093 110.13L83.1194 114.343C78.3167 125.177 66.4866 144.397 55.0276 163.02L54.928 163.178C52.3382 167.386 51.5003 168.652 50.93 169.516C50.2737 170.507 49.969 170.966 47.764 174.743C51.6604 174.498 53.5647 174.081 55.3382 173.693C56.3694 173.468 57.3558 173.253 58.6604 173.086C60.0003 172.914 61.1995 172.748 62.3167 172.594C67.9886 171.809 71.4944 171.323 80.2132 171.86C83.5491 172.066 85.8108 172.489 88.3636 172.967C89.8011 173.235 91.3304 173.522 93.1976 173.796C95.9866 174.206 97.9007 175.121 101.354 175.807C107.555 156.715 123.123 124.375 159.28 112.505L160.012 112.265L160.405 112.142C209.664 96.7286 245.428 118.737 250.235 121.695C250.483 121.848 250.649 121.949 250.729 121.993Z" fill="#006633"/>
</svg>
