<svg width="361" height="241" viewBox="0 0 361 241" fill="none" xmlns="http://www.w3.org/2000/svg">
<path fill-rule="evenodd" clip-rule="evenodd" d="M228.66 35.6624C224.414 43.1071 205.073 54.3102 193.502 54.3942V54.3857C188.293 54.4235 185.905 45.0489 185.503 39.8397C185.299 37.1933 185.204 34.5002 185.826 31.0151C185.863 30.7925 185.94 30.5764 186.046 30.3761C186.148 30.1839 186.277 30.007 186.427 29.8529C186.701 29.5762 186.647 29.6139 186.987 29.287C187.433 28.8582 187.76 28.5437 188.095 28.2724C188.611 27.8535 189.141 27.5365 190.135 27.0555C193.73 25.315 197.608 25.7005 201.552 26.271C203.294 26.5229 205.792 27.5216 208.383 28.5571C211.655 29.8654 215.074 31.2318 217.298 31.2248C223.443 31.2079 224.306 23.4065 224.666 17.9244C224.87 14.7996 224.903 7.44282 221.855 5.35842C220.636 4.52765 215.962 4.53609 212.346 5.82797C210.704 6.41528 206.71 9.32598 205.239 10.6725C204.651 11.2096 203.881 12.505 203.06 13.8863C202.073 15.5464 201.012 17.3312 200.104 18.0755C197.678 20.0635 193.946 16.5486 193.813 12.7907C193.784 12.0061 193.659 11.2345 194.14 10.6179C200.117 2.9759 214.506 -3.03034 223.904 2.76175C234.209 9.11232 235.217 24.1657 228.66 35.6624ZM198.707 29.9036C196.405 30.1635 195.058 32.7472 194.456 35.008C193.747 37.6589 194.186 42.2724 195.89 43.8579C198.55 46.3294 202.196 45.8245 204.323 45.5304C204.608 45.4911 204.865 45.4554 205.089 45.431C207.013 45.2253 214.777 42.9605 213.598 40.427C213.151 39.462 207.718 35.1337 206.922 34.5593C205.525 33.5477 204.604 32.8178 203.698 32.1008C203.233 31.7326 202.772 31.3674 202.252 30.9689C201.058 30.0502 200.199 29.7357 198.707 29.9036Z" fill="#006633"/>
<path d="M261.34 62.1708C263.367 63.2569 265.744 66.8638 265.864 67.5773H265.876C266.014 68.3907 267.643 87.9318 234.484 99.6511C234.442 99.6675 234.396 99.6844 234.356 99.6974C232.129 100.427 228.068 100.343 226.115 97.8351C224.817 96.1824 224.232 93.9718 224.381 91.2664C224.526 88.7204 225.282 86.7075 226.629 85.2855C227.699 84.157 229.018 83.528 230.167 83.0585C233.113 81.853 236.159 81.1569 239.107 80.4831L239.125 80.4787C240.123 80.2521 241.127 80.0215 242.123 79.7741C245.394 78.9562 249.131 77.7945 251.972 75.416L252.825 74.7075C254.682 73.1845 256.567 71.0013 257.99 69.2557C258.812 68.2471 259.48 67.3845 259.897 66.8807C261.178 65.3413 259.37 64.3555 259.37 64.3555C252.631 61.3653 236.167 59.8051 219.641 64.9766L219.393 65.0561L219.16 65.1317C212.471 67.3293 207.885 70.731 203.97 75.1144C203.88 75.2153 203.214 76.2408 202.67 77.086L201.963 78.1886C200.208 81.3552 198.927 85.1513 198.927 88.7795L198.923 89.5218V89.7732C198.916 89.9561 198.904 90.1141 198.893 90.2517C198.872 90.531 198.857 90.7263 198.906 90.8723C201.511 91.1531 204.057 91.4343 205.981 91.6485C206.885 91.3086 207.628 90.5871 207.976 89.6306L212.629 76.8003C213.027 75.7012 214.213 75.1144 215.316 75.4751L217.904 76.3178C219.04 76.6915 221.574 77.8949 221.163 79.0273L213.79 99.3699C213.387 100.465 210.398 101.224 209.249 101.169L185.947 100.054C185.847 100.045 185.748 100.037 185.653 100.02C185.441 100.016 185.254 100.016 185.113 100.016C183.281 99.999 180.88 99.7267 179.079 99.3953C171.134 97.9354 163.993 98.9968 155.997 100.712C155.067 100.911 153.839 101.213 152.667 101.55C151.713 101.825 150.797 102.123 150.108 102.407C147.902 103.325 146.293 104 144.522 103.548C144.518 103.543 144.514 103.543 144.51 103.543C143.709 103.464 142.926 103.212 142.238 102.788C140.649 101.811 139.463 99.588 139.028 97.7928C138.297 94.7728 140.035 91.9545 140.869 90.5995C144.009 85.516 147.633 80.7137 151.141 76.0664C155.135 70.7732 159.27 65.3036 162.583 59.5115C169.649 47.1676 171.478 34.618 167.605 25.072C167.247 24.1955 166.829 23.2857 166.393 22.4187C165.8 21.2411 165.174 20.1435 164.627 19.3172C164.109 18.7676 163.586 18.2394 163.06 17.7361L162.139 16.876L161.65 16.4149C153.43 9.1794 144.9 6.96482 141.652 6.35267L140.96 7.92976C140.123 10.3033 140.852 13.1052 142.702 16.7165C144.36 19.9547 146.526 22.8783 149.125 25.4074C149.464 25.7358 149.811 26.0568 150.161 26.3763L150.963 27.1062C152.302 28.3181 153.692 29.5682 154.907 31.0569C157.209 33.8756 158.327 37.0253 158.054 39.9321C157.686 43.8708 154.484 47.1298 150.913 47.1969C147.28 47.2724 144.833 44.5038 143.349 42.1551C143.237 41.9832 143.158 41.8282 143.058 41.6602C143.005 41.694 141.831 39.7353 141.831 39.7353C126.221 13.7512 138.459 2.58585 138.99 2.12475C139.455 1.71781 140.185 1.37397 140.795 1.42813C141.454 1.48726 153.932 2.79156 165.651 13.8605C166.382 14.6008 166.718 14.9476 166.985 15.2234C167.304 15.5528 167.526 15.7814 168.201 16.4567C170.18 18.5704 171.934 20.777 173.734 23.5451C173.81 23.6589 173.882 23.7722 173.954 23.8859L173.987 23.9351C182.107 36.8032 178.723 50.7158 176.869 56.1347L176.06 58.2782C173.616 63.7906 167.597 73.5696 161.767 83.045L161.716 83.1255C160.398 85.2666 159.972 85.911 159.682 86.3503C159.348 86.8546 159.193 87.0881 158.071 89.01C160.054 88.8853 161.023 88.6732 161.925 88.4759C162.45 88.3611 162.951 88.2518 163.615 88.1668C164.297 88.0794 164.907 87.9949 165.476 87.9164C168.361 87.5169 170.145 87.27 174.581 87.5433C176.279 87.6476 177.429 87.8633 178.728 88.1062C179.46 88.2429 180.238 88.3884 181.188 88.5281C182.607 88.7368 183.581 89.2023 185.338 89.5511C188.493 79.8372 196.414 63.3826 214.81 57.3431L215.183 57.2209L215.383 57.1583C240.446 49.3161 258.643 60.5142 261.088 62.0192C261.215 62.0967 261.299 62.1484 261.34 62.1708Z" fill="#006633"/>
<path d="M207.594 143.099C208.314 145.461 208.669 148.305 208.669 151.631V174.451C208.669 175.479 207.847 176.311 206.83 176.311H200.369C199.353 176.311 198.531 175.479 198.531 174.451V148.999C198.531 144.034 197.84 141.417 196.132 139.153C194.43 136.885 192.532 135.749 190.436 135.749C188.524 135.749 186.242 136.615 184.209 138.278C182.175 139.941 180.979 141.003 180.327 143.552C180.025 144.881 179.835 146.229 179.743 147.592C179.651 148.955 179.607 150.662 179.607 152.714V174.446C179.607 175.474 178.785 176.306 177.768 176.306H173.375C172.358 176.306 171.561 175.204 171.561 174.176V134.337C171.561 133.308 172.383 132.477 173.399 132.477L179.612 132.747V139.645C180.75 137.594 182.511 135.837 184.904 134.386C187.298 132.934 189.813 132.206 192.44 132.206C194.833 132.206 197.018 132.555 198.993 133.254C200.968 133.948 202.729 135.202 204.286 137.018C205.779 138.711 206.888 140.743 207.603 143.095L207.594 143.099Z" fill="#006633"/>
<path d="M163.824 143.355C164.544 145.717 164.899 148.561 164.899 151.887V174.707C164.899 175.735 164.077 176.567 163.06 176.567H156.6C155.583 176.567 154.761 175.735 154.761 174.707V149.255C154.761 144.29 154.07 141.673 152.363 139.409C150.66 137.141 148.763 136.004 146.666 136.004C144.754 136.004 142.473 136.87 140.439 138.533C138.406 140.196 137.209 141.259 136.557 143.808C136.256 145.136 136.066 146.485 135.973 147.847C135.881 149.21 135.837 150.918 135.837 152.969V174.702C135.837 175.73 135.015 176.562 133.998 176.562H129.606C128.589 176.562 127.791 175.46 127.791 174.431V134.592C127.791 133.564 128.613 132.733 129.63 132.733L135.842 133.003V139.901C136.981 137.85 138.742 136.093 141.135 134.642C143.528 133.19 146.044 132.462 148.67 132.462C151.064 132.462 153.248 132.811 155.223 133.51C157.198 134.204 158.959 135.458 160.516 137.274C162.01 138.966 163.119 140.999 163.834 143.35L163.824 143.355Z" fill="#006633"/>
<path d="M297.219 145.731C298.328 148.452 298.883 151.296 298.883 154.263C298.883 157.23 298.328 160.054 297.219 162.745C296.115 165.437 294.514 167.872 292.422 170.052C290.326 172.167 287.932 173.786 285.242 174.903C282.552 176.025 279.74 176.586 276.811 176.586C272.501 176.586 268.522 175.41 264.878 173.048V176.045L257.805 175.936C256.817 175.936 256.02 175.129 256.02 174.131V118.04C256.02 117.041 256.817 116.234 257.805 116.234L263.093 116.343C264.08 116.343 264.878 117.15 264.878 118.148V132.397C264.878 133.696 266.211 134.602 267.364 134.036C270.21 132.638 273.357 131.945 276.811 131.945C279.798 131.945 282.625 132.506 285.286 133.627C287.947 134.749 290.326 136.368 292.422 138.484C294.514 140.599 296.115 143.02 297.219 145.741V145.731ZM284.877 170.318C286.551 168.049 287.402 166.509 287.757 163.788C288.117 161.067 288.302 157.889 288.302 154.263C288.302 150.637 288.122 147.458 287.757 144.737C287.402 142.011 286.667 140.629 284.994 138.356C283.32 136.092 280.402 134.98 276.816 134.98C272.667 134.98 268.96 136.092 265.681 138.316C265.18 138.656 264.878 139.256 264.878 139.871V168.684C264.878 169.289 265.17 169.885 265.666 170.229C268.95 172.507 272.662 173.648 276.816 173.648C280.402 173.648 283.204 172.591 284.877 170.327V170.318Z" fill="#006633"/>
<path d="M76.8107 170.707C74.4026 170.151 72.0043 168.045 69.4211 173.275C68.346 175.45 68.093 177.846 66.4828 179.657C60.8008 186.053 50.5216 185.733 43.784 180.793C40.3446 178.274 37.6301 176.134 35.8107 172.119C33.9816 168.104 33.0718 162.146 33.0718 154.249C33.0718 146.352 33.9816 140.403 35.8107 136.388C37.6301 132.373 38.8755 131.502 42.3148 128.983C45.7542 126.533 49.6022 125.303 53.8686 125.303C55.5323 125.303 57.0842 125.441 58.5339 125.706C62.7856 126.489 65.7045 126.666 68.2925 130.026C79.963 145.19 60.2679 145.959 49.3563 143.494C42.3268 141.905 35.7692 138.47 28.6715 137.255C19.7496 135.725 10.2585 134.834 2.89331 140.153C1.53118 141.137 0.100934 142.574 0.412276 144.237C0.567948 145.073 1.14199 145.752 1.69657 146.387C3.8857 148.906 6.76563 151.671 10.0007 150.953C11.4358 150.633 12.6276 149.664 13.8098 148.783C18.3777 145.373 23.0184 144.285 28.6615 144.885C33.283 145.377 30.525 144.168 42.1273 149.639C52.7908 154.663 69.3643 152.856 74.9037 147.813C79.4376 142.996 78.6787 137.535 77.6376 134.735C76.0128 130.385 73.0745 127.428 73.0745 127.428C71.3524 125.888 69.8687 124.771 69.2265 124.348C65.3591 121.775 60.0614 120.919 55.2502 120.919C49.0622 120.919 43.3364 122.41 38.0776 125.396C32.8189 128.383 28.6401 132.427 25.5461 137.539C22.4522 142.647 20.9051 148.221 20.9051 154.253C20.9051 160.286 22.4522 165.87 25.5461 170.972C28.6401 176.084 32.8189 180.129 38.0776 183.115C43.3364 186.102 49.0622 187.593 55.2502 187.593C60.3387 187.593 65.1499 186.565 69.6887 184.508C72.554 183.209 87.0996 173.073 76.8107 170.707Z" fill="#006633"/>
<path d="M332.506 135.788C334.602 135.07 336.971 134.612 339.749 134.927C342.065 135.286 344.298 135.562 346.657 138.603C348.379 140.822 349.031 143.749 351.24 145.663C352.5 146.755 354.212 147.056 355.798 146.559C362.672 144.399 351.751 135.69 349.503 134.499C346.283 132.792 343.592 131.877 339.204 131.941C339.19 131.941 339.175 131.941 339.161 131.941C339.122 131.941 339.078 131.95 339.039 131.95C338.445 131.96 337.205 132.093 337.205 132.093C335.512 132.241 333.805 132.506 332.078 133.033C329.207 133.938 326.887 135.331 325.121 137.205C323.355 139.08 322.475 141.343 322.475 144.01C322.475 146.677 323.073 148.861 324.265 150.588C325.462 152.31 326.926 153.688 328.663 154.716C330.394 155.745 332.666 156.832 335.483 157.983L337.721 158.982C341.194 160.493 343.675 161.629 345.169 162.382C346.667 163.135 347.83 163.966 348.666 164.877C349.503 165.787 349.921 166.874 349.921 168.144C349.921 169.118 349.688 169.329 348.851 170.328C348.014 171.327 344.804 172.601 342.877 173.211C342.624 173.29 341.904 173.433 341.632 173.453C339.219 173.61 337.409 173.453 334.559 170.668C333.08 169.221 332.112 167.327 330.725 165.787C329.339 164.252 327.218 163.051 325.296 163.691C321.404 164.98 322.241 167.386 324.445 169.659C325.116 170.658 327.519 172.518 328.575 173.31C328.847 173.517 329.134 173.699 329.441 173.846C329.835 174.038 329.966 174.161 330.686 174.442C330.998 174.594 332.116 175.052 332.316 175.125C333.581 175.598 334.802 175.883 336.003 176.139C337.059 176.4 339.832 176.602 340.722 176.606C342.615 176.621 345.991 175.942 348.355 174.643C350.714 173.339 352.436 172.144 353.512 171.056C355.905 168.518 357.102 165.733 357.102 162.707C357.102 160.655 356.474 158.879 355.214 157.398C353.959 155.917 352.422 154.677 350.598 153.673C348.778 152.679 346.185 151.454 342.843 150.003L341.136 149.275C340.061 148.787 339.253 148.458 338.718 148.276C335.191 146.765 332.554 145.461 330.827 144.374C329.091 143.287 328.22 141.983 328.22 140.472C328.22 140.231 328.21 139.843 328.4 139.38C329.465 136.767 330.312 136.546 332.51 135.793L332.506 135.788Z" fill="#006633"/>
<path d="M249.348 151.532C249.348 148.206 248.993 145.362 248.273 143C247.553 140.644 246.585 138.602 245.476 136.629C244.211 134.38 241.783 132.628 239.813 131.935C237.838 131.236 235.654 130.887 233.26 130.887C227.661 130.887 220.529 134.926 216.258 138.488C215.913 138.774 215.567 139.084 215.387 139.497C215.207 139.91 215.48 140.835 215.82 141.126C216.015 141.293 216.282 141.357 216.54 141.391C218.184 141.613 219.586 140.55 220.967 139.625C222.349 138.7 223.555 137.524 224.917 136.57C228.916 133.765 233.576 133.947 236.661 138.06C239.862 142.326 240.523 149.844 235.474 152.811C232.2 154.735 228.391 155.478 224.874 156.9C221.356 158.322 217.873 160.772 216.866 164.462C215.986 167.695 216.409 170.244 218.724 172.645C221.04 175.041 224.533 175.867 227.846 175.877C234.063 175.897 236.996 175.292 239.254 172.861C239.254 173.368 239.22 173.88 239.22 174.352C239.22 175.38 240.042 176.212 241.058 176.212H247.519C248.536 176.212 249.358 175.38 249.358 174.352V174.244L249.333 173.87L249.358 173.201V151.532H249.348ZM240.29 167.218C239.623 169.038 235.912 170.77 234.199 171.651C232.122 172.718 228.464 172.935 226.236 172.246C224.008 171.552 222.791 168.3 223.589 166.086C224.11 164.649 224.771 164.01 226.129 163.331C227.86 162.465 229.106 161.923 231.417 160.684C232.287 160.216 238.577 157.2 239.638 157.225C242.425 157.284 240.961 165.377 240.29 167.223V167.218Z" fill="#006633"/>
<path d="M121.121 151.532C121.121 148.206 120.766 145.362 120.046 143C119.326 140.644 118.358 138.602 117.249 136.629C115.984 134.38 113.557 132.628 111.587 131.935C109.611 131.236 107.427 130.887 105.034 130.887C99.4344 130.887 92.3027 134.926 88.0315 138.488C87.6861 138.774 87.3407 139.084 87.1607 139.497C86.9807 139.91 87.2532 140.835 87.5937 141.126C87.7883 141.293 88.0558 141.357 88.3137 141.391C89.9579 141.613 91.359 140.55 92.7405 139.625C94.1221 138.7 95.3286 137.524 96.6907 136.57C100.69 133.765 105.35 133.947 108.434 138.06C111.635 142.326 112.297 149.844 107.247 152.811C103.973 154.735 100.164 155.478 96.6469 156.9C93.1297 158.322 89.6466 160.772 88.6396 164.462C87.7591 167.695 88.1823 170.244 90.4979 172.645C92.8135 175.041 96.3064 175.867 99.6193 175.877C105.836 175.897 108.77 175.292 111.027 172.861C111.027 173.368 110.993 173.88 110.993 174.352C110.993 175.38 111.815 176.212 112.832 176.212H119.292C120.309 176.212 121.131 175.38 121.131 174.352V174.244L121.107 173.87L121.131 173.201V151.532H121.121ZM112.063 167.218C111.397 169.038 107.685 170.77 105.973 171.651C103.895 172.718 100.237 172.935 98.0091 172.246C95.781 171.552 94.5648 168.3 95.3626 166.086C95.8832 164.649 96.5448 164.01 97.902 163.331C99.6339 162.465 100.879 161.923 103.19 160.684C104.061 160.216 110.351 157.2 111.411 157.225C114.199 157.284 112.735 165.377 112.063 167.223V167.218Z" fill="#006633"/>
<path d="M80.0927 208.587C79.4457 206.462 78.4435 204.631 77.1009 203.106C75.6998 201.473 74.1091 200.336 72.3286 199.716C70.5481 199.086 68.5779 198.771 66.4228 198.771C64.0537 198.771 61.7867 199.426 59.6268 200.735C58.1284 201.645 57.0047 202.732 56.0561 203.903C55.8615 203.647 55.7107 203.347 55.4966 203.106C54.0956 201.473 52.5048 200.336 50.7243 199.716C48.9438 199.086 46.9736 198.771 44.8185 198.771C42.4494 198.771 40.1824 199.426 38.0225 200.735C35.8674 202.043 34.2767 203.628 33.2502 205.478V199.259H25.7682C24.8537 199.259 24.1094 200.006 24.1094 200.936V239.28C24.1094 240.205 24.8537 240.957 25.7682 240.957H31.5913C32.5059 240.957 33.2502 240.205 33.2502 239.28V217.262C33.2502 215.412 33.2891 213.872 33.3718 212.642C33.4545 211.416 33.7464 211.436 34.014 210.24C34.6075 207.948 35.8188 206.053 37.6528 204.553C39.4868 203.052 41.2673 202.304 42.9894 202.304C44.8818 202.304 46.5942 203.328 48.1265 205.369C49.6638 207.411 50.3108 209.429 50.3108 213.906V239.28C50.3108 240.205 51.0503 240.957 51.9648 240.957H57.7879C58.7025 240.957 59.4468 240.205 59.4468 239.28V216.278C59.4468 213.276 59.1938 210.777 58.6928 208.607C58.4301 207.466 58.7463 207.692 58.1041 206.127C58.6636 205.335 59.5052 204.223 60.3516 203.657C62.7013 202.083 63.4456 201.861 65.1677 201.861C67.0601 201.861 68.5681 202.831 70.1005 204.877C71.6378 206.919 71.9151 209.438 71.9151 213.916V239.29C71.9151 240.215 72.6545 240.967 73.5691 240.967H79.3922C80.3068 240.967 81.051 240.215 81.051 239.29V216.287C81.051 213.286 80.73 210.723 80.083 208.597L80.0927 208.587Z" fill="#006633"/>
<path d="M134.408 214.31C135.366 211.958 136.743 209.872 138.553 208.042C140.357 206.216 142.41 204.814 144.711 203.85C147.012 202.881 149.454 202.398 152.038 202.398C155.015 202.398 157.729 202.999 160.191 204.204C161.193 204.696 162.341 203.909 162.341 202.787V190.482C162.341 189.621 163.032 188.922 163.883 188.922H169.551C170.402 188.922 171.093 189.621 171.093 190.482V238.931C171.093 239.792 170.402 240.491 169.551 240.491H162.341V237.903C159.194 239.945 155.754 240.958 152.038 240.958C149.503 240.958 147.09 240.476 144.789 239.507C142.488 238.542 140.416 237.145 138.553 235.32C136.743 233.44 135.361 231.334 134.408 229.007C133.449 226.685 132.973 224.239 132.973 221.681C132.973 219.122 133.449 216.662 134.408 214.31ZM142.581 229.907C142.887 232.259 143.617 233.076 145.062 235.039C146.507 236.997 149.265 237.903 152.369 237.903C155.954 237.903 158.829 237.366 161.665 235.398C162.093 235.103 162.346 234.586 162.346 234.065V209.572C162.346 209.041 162.088 208.524 161.655 208.229C158.824 206.31 156.159 206.176 152.579 206.176C149.48 206.176 146.156 206.737 144.711 208.695C143.266 210.658 142.897 211.097 142.585 213.449C142.274 215.801 142.123 218.542 142.123 221.676C142.123 224.81 142.274 227.556 142.585 229.902L142.581 229.907Z" fill="#006633"/>
<path d="M229.205 229.843C227.843 229.193 227.225 230.93 226.316 232.096C225.411 233.263 223.609 234.728 221.093 235.434C219.411 235.815 215.896 235.816 213.143 234.404C208.551 232.047 205.219 228.121 205.375 219.24C205.54 210.094 208.296 206.855 210.743 204.611C212.645 202.87 213.999 202.667 216.602 202.652C219.53 202.632 222.064 202.919 224.01 204.611C225.299 205.733 226.433 207.695 227.021 210.394C227.313 211.733 227.075 213.031 226.87 214.408C226.666 215.786 226.194 217.439 228.33 218.354C233.934 220.76 231.9 211.24 231.171 209.606C229.901 206.767 228.218 205.139 227.021 203.889C226.048 202.87 224.676 202.073 224.01 201.699C221.534 200.331 218.226 199.761 215.297 199.761C211.522 199.761 208.034 200.671 204.823 202.491C201.618 204.312 199.068 206.777 197.181 209.896C195.293 213.011 194.35 216.411 194.35 220.086C194.35 223.762 195.293 227.166 197.181 230.281C199.068 233.395 201.618 235.865 204.823 237.686C208.029 239.506 211.522 240.417 215.297 240.417C218.401 240.417 221.417 239.959 224.102 238.537C225.79 237.642 232.144 231.255 229.205 229.853V229.843Z" fill="#006633"/>
<path d="M329.392 217.249C329.392 214.082 329.052 211.379 328.371 209.13C327.689 206.886 326.634 204.958 325.211 203.345C323.73 201.618 322.051 200.422 320.172 199.767C318.294 199.102 316.213 198.771 313.938 198.771C308.611 198.771 301.969 201.451 297.901 204.843C297.575 205.116 297.244 205.408 297.073 205.8C296.898 206.192 297.163 207.073 297.485 207.35C297.674 207.513 297.925 207.57 298.166 207.604C299.732 207.814 301.061 206.805 302.376 205.924C303.691 205.044 304.836 203.924 306.137 203.015C309.94 200.35 314.378 200.518 317.311 204.432C320.357 208.494 320.986 215.646 316.18 218.469C313.063 220.297 309.439 221.005 306.094 222.359C302.75 223.713 299.429 226.043 298.474 229.555C297.636 232.631 298.866 236.028 301.071 238.311C303.275 240.593 307.533 241.052 310.683 240.894C316.26 240.617 316.492 240.99 319.775 237.55C319.775 238.033 319.742 238.521 319.742 238.966C319.742 239.942 320.527 240.736 321.492 240.736H327.642C328.607 240.736 329.392 239.942 329.392 238.966V238.861L329.369 238.507L329.392 237.87V217.249ZM320.773 232.172C320.139 233.904 316.606 235.55 314.978 236.387C313.001 237.402 309.519 237.612 307.4 236.952C305.281 236.292 304.122 233.196 304.883 231.091C305.375 229.722 306.009 229.115 307.301 228.469C308.947 227.641 310.134 227.134 312.334 225.947C313.162 225.502 319.146 222.637 320.158 222.656C322.812 222.713 321.417 230.416 320.778 232.167L320.773 232.172Z" fill="#006633"/>
<path d="M289.344 209.025C290.02 211.249 290.356 213.927 290.356 217.065V238.567C290.356 239.533 289.581 240.318 288.625 240.318H282.54C281.584 240.318 280.809 239.533 280.809 238.567V214.587C280.809 209.91 280.156 207.447 278.549 205.309C276.946 203.171 275.154 202.105 273.177 202.105C271.375 202.105 269.224 202.923 267.309 204.491C265.389 206.06 264.268 207.06 263.649 209.461C263.365 210.709 263.185 211.981 263.1 213.263C263.015 214.544 262.973 216.156 262.973 218.088V238.567C262.973 239.533 262.197 240.318 261.242 240.318H257.104C256.149 240.318 255.393 239.275 255.393 238.309V200.771C255.393 199.805 256.168 199.02 257.123 199.02L262.977 199.278V205.778C264.046 203.846 265.71 202.191 267.966 200.823C270.222 199.455 272.591 198.771 275.068 198.771C277.324 198.771 279.386 199.102 281.244 199.757C283.102 200.407 284.767 201.593 286.233 203.301C287.637 204.893 288.682 206.806 289.358 209.03L289.344 209.025Z" fill="#006633"/>
<path d="M182.846 200.246C182.672 200.285 181.691 199.685 181.268 199.395C180.643 198.96 180.207 198.609 179.824 198.227C179.453 197.855 179.133 197.455 178.731 196.922C177.682 195.529 177.68 194.914 177.816 193.468C177.908 192.513 178.34 191.553 179.035 190.777C179.916 189.794 181.221 189.108 182.791 189.108C184.275 189.113 185.33 189.551 186.291 190.462C187.391 191.5 187.69 192.592 187.69 193.256C187.674 195.094 187.008 196.347 186.035 197.426C185.389 198.143 184.609 198.783 183.795 199.469L183.434 199.785C183.191 199.995 182.908 200.232 182.846 200.246Z" fill="#006633"/>
<path d="M178.289 202.245H187.152V240.322H178.289V202.245Z" fill="#006633"/>
<path d="M310.379 128.191C310.035 128.001 309.629 127.745 309.395 127.585C308.158 126.733 307.674 126.195 306.857 125.112C306.453 124.574 306.205 124.152 306.059 123.754C305.828 123.121 305.859 122.546 305.943 121.658C306.15 119.493 308.109 117.299 310.918 117.299C312.402 117.304 313.457 117.741 314.418 118.652C315.518 119.69 315.816 120.782 315.816 121.446C315.789 124.409 314.074 125.852 312.109 127.501L311.922 127.659C311.848 127.723 311.08 128.412 310.973 128.437C310.895 128.454 310.656 128.345 310.379 128.191Z" fill="#006633"/>
<path d="M313.916 130.888H307.309C306.336 130.888 305.543 131.689 305.543 132.674V172.655C305.543 173.64 306.336 174.441 307.309 174.441H313.916C314.889 174.441 315.682 173.64 315.682 172.655V132.674C315.682 131.689 314.889 130.888 313.916 130.888Z" fill="#006633"/>
<path d="M243.887 200.246C243.713 200.285 242.732 199.685 242.309 199.395C241.072 198.543 240.588 198.005 239.772 196.922C238.723 195.529 238.721 194.914 238.857 193.468C239.065 191.303 241.024 189.108 243.832 189.108C245.316 189.113 246.371 189.551 247.332 190.462C248.432 191.5 248.731 192.592 248.731 193.256C248.713 195.276 247.908 196.59 246.775 197.744C246.195 198.336 245.527 198.887 244.836 199.469C244.762 199.532 243.994 200.222 243.887 200.246Z" fill="#006633"/>
<path d="M240.875 202.245H246.654C247.506 202.245 248.195 202.943 248.195 203.805V238.763C248.195 239.624 247.506 240.322 246.654 240.322H240.875C240.024 240.322 239.332 239.624 239.332 238.763V203.805C239.332 202.943 240.024 202.245 240.875 202.245Z" fill="#006633"/>
<path d="M359.588 222.611C359.476 222.276 359.344 221.656 357.155 221.823C355.448 221.956 355.944 227.024 355.769 229.145C355.424 233.435 353.006 236.825 346.541 237.017C344.385 237.081 344.935 233.765 344.935 231.57C344.935 231.511 344.921 231.462 344.901 231.413C344.921 231.31 344.935 231.201 344.935 231.093V196.14C344.935 195.279 344.244 194.58 343.393 194.58H337.619C336.767 194.58 336.077 195.279 336.077 196.14V231.093C336.077 235.777 336.023 230.522 336.077 236.028C336.12 240.683 343.914 240.22 348.603 240.072C352.67 239.945 357.311 236.992 358.868 233.627C360.493 230.114 360.814 226.286 359.588 222.611Z" fill="#006633"/>
<path fill-rule="evenodd" clip-rule="evenodd" d="M122.567 229.843C121.205 229.193 120.195 230.394 119.285 231.56C119.229 231.631 119.172 231.706 119.112 231.784C118.203 232.967 116.815 234.772 114.454 235.434C112.772 235.815 108.416 235.949 105.663 234.537L105.555 234.481C101.013 232.151 97.4005 230.298 97.555 221.487C99.5152 221.193 100.5 221.104 102.939 220.885C103.36 220.847 103.823 220.805 104.343 220.758L120.655 219.584L122.458 219.465C128.964 219.465 125.453 211.654 124.594 209.744C124.571 209.694 124.551 209.648 124.532 209.606C123.353 206.969 121.817 205.376 120.645 204.161C120.555 204.068 120.468 203.978 120.382 203.889C119.41 202.87 118.038 202.073 117.371 201.699C114.895 200.331 111.587 199.761 108.658 199.761C104.883 199.761 101.395 200.671 98.1847 202.491C94.9788 204.312 92.4297 206.777 90.5422 209.896C88.6547 213.011 87.7109 216.411 87.7109 220.086C87.7109 223.762 88.6547 227.166 90.5422 230.281C92.4297 233.395 94.9788 235.865 98.1847 237.686C101.391 239.506 104.883 240.417 108.658 240.417C111.762 240.417 114.778 239.959 117.464 238.537C119.954 237.218 125.505 231.255 122.567 229.853V229.843ZM107.181 205.053C105.204 205.503 104.385 205.707 102.412 207.101L100.993 208.48C99.6091 209.86 96.0855 215.796 98.9949 216.541C100.024 216.805 107.595 216.486 108.577 216.436C111.711 216.282 114.769 216.083 116.944 215.853C116.966 215.851 116.989 215.849 117.011 215.846C118.905 215.647 122.146 215.305 120.222 211.224C118.728 208.484 116.887 206.794 114.833 205.678C112.779 204.563 109.457 204.538 107.181 205.053Z" fill="#006633"/>
</svg>
